<?xml version="1.0" encoding="UTF-8" standalone="no"?>
<svg width="512" height="512" viewBox="0 0 512 512" fill="none" xmlns="http://www.w3.org/2000/svg">
  <rect width="512" height="512" rx="128" fill="#1A1A2E"/>
  <path d="M256 96C165.52 96 96 165.52 96 256C96 346.48 165.52 416 256 416C346.48 416 416 346.48 416 256C416 165.52 346.48 96 256 96Z" fill="#4285F4"/>
  <path d="M256 144C192.24 144 144 192.24 144 256C144 319.76 192.24 368 256 368C319.76 368 368 319.76 368 256C368 192.24 319.76 144 256 144Z" fill="#1A1A2E"/>
  <path d="M256 192C220.65 192 192 220.65 192 256C192 291.35 220.65 320 256 320C291.35 320 320 291.35 320 256C320 220.65 291.35 192 256 192Z" fill="#4285F4"/>
  <path d="M256 240C247.16 240 240 247.16 240 256C240 264.84 247.16 272 256 272C264.84 272 272 264.84 272 256C272 247.16 264.84 240 256 240Z" fill="white"/>
  <path d="M384 160L408 184L384 208L360 184L384 160Z" fill="white"/>
  <path d="M128 304L152 328L128 352L104 328L128 304Z" fill="white"/>
  <path d="M320 128L344 152L320 176L296 152L320 128Z" fill="white"/>
  <path d="M192 336L216 360L192 384L168 360L192 336Z" fill="white"/>
</svg>
