<?xml version="1.0" encoding="UTF-8" standalone="no"?>
<svg width="192" height="192" viewBox="0 0 192 192" fill="none" xmlns="http://www.w3.org/2000/svg">
  <rect width="192" height="192" rx="48" fill="#1A1A2E"/>
  <path d="M96 40C65.072 40 40 65.072 40 96C40 126.928 65.072 152 96 152C126.928 152 152 126.928 152 96C152 65.072 126.928 40 96 40Z" fill="#4285F4"/>
  <path d="M96 56C73.909 56 56 73.909 56 96C56 118.091 73.909 136 96 136C118.091 136 136 118.091 136 96C136 73.909 118.091 56 96 56Z" fill="#1A1A2E"/>
  <path d="M96 72C82.745 72 72 82.745 72 96C72 109.255 82.745 120 96 120C109.255 120 120 109.255 120 96C120 82.745 109.255 72 96 72Z" fill="#4285F4"/>
  <path d="M96 88C91.582 88 88 91.582 88 96C88 100.418 91.582 104 96 104C100.418 104 104 100.418 104 96C104 91.582 100.418 88 96 88Z" fill="white"/>
  <path d="M144 64L152 72L144 80L136 72L144 64Z" fill="white"/>
  <path d="M48 112L56 120L48 128L40 120L48 112Z" fill="white"/>
  <path d="M120 48L128 56L120 64L112 56L120 48Z" fill="white"/>
  <path d="M72 128L80 136L72 144L64 136L72 128Z" fill="white"/>
</svg>
