<?xml version="1.0" encoding="UTF-8" standalone="no"?>
<svg width="120" height="40" viewBox="0 0 120 40" xmlns="http://www.w3.org/2000/svg">
  <defs>
    <linearGradient id="shieldGradient" x1="0%" y1="0%" x2="100%" y2="100%">
      <stop offset="0%" style="stop-color:#0D47A1;stop-opacity:1" />
      <stop offset="100%" style="stop-color:#1976D2;stop-opacity:1" />
    </linearGradient>
  </defs>
  
  <!-- Shield Shape -->
  <path d="M20,5 L5,12 C5,12 5,25 20,35 C35,25 35,12 35,12 L20,5 Z" 
        fill="url(#shieldGradient)" />
  
  <!-- Inner Shield Highlight -->
  <path d="M20,8 L8,14 C8,14 8,24 20,32 C32,24 32,14 32,14 L20,8 Z" 
        fill="none" 
        stroke="#FFFFFF" 
        stroke-width="0.5" 
        stroke-opacity="0.3" />
  
  <!-- Location Pin -->
  <circle cx="20" cy="19" r="3" fill="#FFFFFF" />
  <circle cx="20" cy="19" r="2" fill="#0D47A1" />
  
  <!-- AI Circuit Pattern -->
  <g stroke="#FFFFFF" stroke-width="0.5" stroke-opacity="0.7" fill="none">
    <path d="M15,25 L18,25 L18,28" />
    <path d="M25,25 L22,25 L22,28" />
    <circle cx="18" cy="25" r="0.8" fill="#FFFFFF" stroke="none" />
    <circle cx="22" cy="25" r="0.8" fill="#FFFFFF" stroke="none" />
  </g>
  
  <!-- Text -->
  <text x="55" y="17" font-family="Arial, sans-serif" font-weight="bold" font-size="12" fill="#0D47A1" text-anchor="left">SAFEWAY</text>
  <text x="55" y="30" font-family="Arial, sans-serif" font-size="8" fill="#0D47A1" text-anchor="left" opacity="0.9">AI POWERED SAFETY</text>
</svg>
